<svg width="100" height="100" viewBox="0 0 100 100" fill="none" xmlns="http://www.w3.org/2000/svg">
<g clip-path="url(#clip0_588_54)">
<path d="M90 0H10C4.47715 0 0 4.47716 0 10V90C0 95.5229 4.47716 100 10 100H90C95.5229 100 100 95.5228 100 90V10C100 4.47715 95.5228 0 90 0Z" fill="#00827D"/>
<path d="M57.2768 85.9549C63.6111 85.9549 69.0753 84.6664 73.669 82.089C78.2342 79.4855 81.7579 75.8568 84.2405 71.202C86.6942 66.5212 87.9212 61.0775 87.9212 54.8713C87.9212 48.6651 86.6942 43.195 84.2405 38.4618C81.7579 33.7018 78.3057 29.9939 73.883 27.338C69.4318 24.6554 64.2386 23.3145 58.3038 23.3145C54.8801 23.3145 51.4985 23.8401 48.1604 24.8922C44.8222 25.9439 41.7831 27.6532 39.044 30.0203C36.3048 32.3605 34.1222 35.464 32.4956 39.3295C30.8695 43.195 30.056 47.9551 30.056 53.6092V57.5535H80.7309V49.5064H40.328C40.328 46.0881 41.07 43.0374 42.5536 40.3552C44.0087 37.6725 46.0918 35.5558 48.8024 34.0044C51.4845 32.4527 54.6517 31.6768 58.3038 31.6768C62.327 31.6768 65.8082 32.5973 68.7468 34.4383C71.6574 36.2528 73.8971 38.6194 75.4666 41.5385C77.0357 44.4576 77.8207 47.587 77.8207 50.9265V56.2914C77.8207 60.867 76.9647 64.746 75.2526 67.9279C73.512 71.0838 71.1009 73.4898 68.0193 75.1467C64.9377 76.7769 61.357 77.5921 57.2768 77.5921C54.6231 77.5921 52.2265 77.2505 50.0864 76.5669C47.9178 75.8568 46.0488 74.8047 44.4797 73.411C42.9101 71.9908 41.6976 70.2291 40.8415 68.1253L31.0835 70.6499C32.1106 73.7002 33.8367 76.3824 36.2623 78.6966C38.6874 80.9845 41.6835 82.773 45.2502 84.0615C48.8169 85.3236 52.8256 85.9549 57.2768 85.9549Z" fill="white"/>
<path d="M18.3987 31.742C22.9752 31.742 26.6852 28.032 26.6852 23.4555C26.6852 18.8789 22.9752 15.1689 18.3987 15.1689C13.8222 15.1689 10.1122 18.8789 10.1122 23.4555C10.1122 28.032 13.8222 31.742 18.3987 31.742Z" fill="#00B2AC"/>
</g>
<defs>
<clipPath id="clip0_588_54">
<path d="M0 10C0 4.47716 4.47715 0 10 0H90C95.5228 0 100 4.47715 100 10V90C100 95.5228 95.5228 100 90 100H10C4.47716 100 0 95.5228 0 90V10Z" fill="white"/>
</clipPath>
</defs>
</svg>
