<svg width="100" height="100" viewBox="0 0 100 100" fill="none" xmlns="http://www.w3.org/2000/svg">
<g clip-path="url(#clip0_553_22)">
<path d="M100 0H0V100H100V0Z" fill="white" fill-opacity="0.16"/>
<path d="M51.6853 70.2243C52.1508 70.2243 52.528 70.1614 52.528 70.0838C52.528 70.0062 52.1508 69.9434 51.6853 69.9434C51.2199 69.9434 50.8427 70.0062 50.8427 70.0838C50.8427 70.1614 51.2199 70.2243 51.6853 70.2243Z" fill="white"/>
<path d="M57.2768 85.9549C63.6111 85.9549 69.0753 84.6664 73.669 82.089C78.2342 79.4855 81.7579 75.8568 84.2405 71.202C86.6942 66.5212 87.9212 61.0775 87.9212 54.8713C87.9212 48.6651 86.6942 43.195 84.2405 38.4618C81.7579 33.7018 78.3057 29.9939 73.883 27.338C69.4318 24.6554 64.2386 23.3145 58.3038 23.3145C54.8801 23.3145 51.4985 23.8401 48.1604 24.8922C44.8222 25.9439 41.7831 27.6532 39.044 30.0203C36.3048 32.3605 34.1222 35.464 32.4956 39.3295C30.8695 43.195 30.056 47.9551 30.056 53.6092V57.5535H80.7309V49.5064H40.328C40.328 46.0881 41.07 43.0374 42.5536 40.3552C44.0087 37.6725 46.0918 35.5558 48.8024 34.0044C51.4845 32.4527 54.6517 31.6768 58.3038 31.6768C62.327 31.6768 65.8082 32.5973 68.7468 34.4383C71.6574 36.2528 73.8971 38.6194 75.4666 41.5385C77.0357 44.4576 77.8207 47.587 77.8207 50.9265V56.2914C77.8207 60.867 76.9647 64.746 75.2526 67.9279C73.512 71.0838 71.1009 73.4898 68.0193 75.1467C64.9377 76.7769 61.357 77.5921 57.2768 77.5921C54.6231 77.5921 52.2265 77.2505 50.0864 76.5669C47.9178 75.8568 46.0488 74.8047 44.4797 73.411C42.9101 71.9908 41.6976 70.2291 40.8415 68.1253L31.0835 70.6499C32.1106 73.7002 33.8367 76.3824 36.2623 78.6966C38.6874 80.9845 41.6835 82.773 45.2502 84.0615C48.8169 85.3236 52.8256 85.9549 57.2768 85.9549Z" fill="white"/>
<path d="M18.3983 15.6689C22.6986 15.6689 26.1852 19.1549 26.1854 23.4551C26.1854 27.7555 22.6987 31.2422 18.3983 31.2422C14.0981 31.242 10.6122 27.7553 10.6122 23.4551C10.6124 19.155 14.0982 15.6692 18.3983 15.6689Z" fill="#00827D" stroke="#FFFEFE"/>
</g>
<defs>
<clipPath id="clip0_553_22">
<rect width="100" height="100" fill="white"/>
</clipPath>
</defs>
</svg>
